<?xml version="1.0" encoding="UTF-8"?>
<!DOCTYPE svg PUBLIC "-//W3C//DTD SVG 1.1//EN" "http://www.w3.org/Graphics/SVG/1.1/DTD/svg11.dtd">
<!-- Creator: CorelDRAW -->
<svg xmlns="http://www.w3.org/2000/svg" xml:space="preserve" width="3.8955mm" height="4.3073mm" version="1.1" style="shape-rendering:geometricPrecision; text-rendering:geometricPrecision; image-rendering:optimizeQuality; fill-rule:evenodd; clip-rule:evenodd"
viewBox="0 0 13.51 14.94"
 xmlns:xlink="http://www.w3.org/1999/xlink"
 xmlns:xodm="http://www.corel.com/coreldraw/odm/2003">
 <defs>
  <style type="text/css">
   <![CDATA[
    .fil0 {fill:#15AB0D}
   ]]>
  </style>
 </defs>
 <g id="Capa_x0020_1">
  <metadata id="CorelCorpID_0Corel-Layer"/>
  <path class="fil0" d="M1.09 14.94c0.09,-0.39 0.42,-1.13 0.6,-1.54 0.73,-1.74 1.13,-2.67 2.12,-4.28 0.56,-0.92 1.23,-1.71 1.89,-2.38 0.37,-0.37 1.81,-1.63 2.43,-1.78 -0.13,0.07 -0.74,0.68 -0.89,0.82 -0.85,0.81 -1.74,1.88 -2.38,2.88 -0.68,1.05 -2.07,3.55 -2.24,4.76l0.23 0.11c0.08,0.03 0.16,0.04 0.25,0.06 0.18,0.04 0.32,0.08 0.51,0.11 3.59,0.61 7.27,-0.98 8.91,-4.25 1.15,-2.29 1.34,-4.67 0.36,-7.11 -0.26,-0.63 -1.07,-2.07 -1.49,-2.34 -0.08,0.06 -0.02,0 -0.09,0.09 -0.01,0.01 -0.04,0.05 -0.04,0.07l-0.23 0.4c-1.72,2.54 -5.61,3.07 -7.94,4.61 -1.59,1.05 -3.06,3.6 -2.32,5.74 0.32,0.94 0.53,0.6 0.26,1.11 -0.24,0.46 -0.93,1.81 -1.02,2.34 0.21,0.31 0.61,0.55 1.09,0.59z"/>
 </g>
</svg>
